<svg width="75" height="84" viewBox="0 0 75 84" fill="none" xmlns="http://www.w3.org/2000/svg">
<path d="M33.8166 62.4543H41.2703V37.5037H33.8166V62.4543ZM37.5434 29.1868C38.5994 29.1868 39.4845 28.7882 40.1989 27.9912C40.9132 27.1942 41.2703 26.2065 41.2703 25.0283C41.2703 23.8501 40.9132 22.8625 40.1989 22.0654C39.4845 21.2684 38.5994 20.8699 37.5434 20.8699C36.4875 20.8699 35.6024 21.2684 34.888 22.0654C34.1737 22.8625 33.8166 23.8501 33.8166 25.0283C33.8166 26.2065 34.1737 27.1942 34.888 27.9912C35.6024 28.7882 36.4875 29.1868 37.5434 29.1868ZM37.5434 83.2466C32.3879 83.2466 27.543 82.155 23.0086 79.9718C18.4742 77.7886 14.5299 74.8257 11.1757 71.0831C7.82149 67.3405 5.16608 62.9395 3.20946 57.88C1.25284 52.8206 0.274536 47.4146 0.274536 41.6621C0.274536 35.9096 1.25284 30.5036 3.20946 25.4442C5.16608 20.3847 7.82149 15.9837 11.1757 12.2411C14.5299 8.49849 18.4742 5.5356 23.0086 3.35241C27.543 1.16923 32.3879 0.0776367 37.5434 0.0776367C42.699 0.0776367 47.5439 1.16923 52.0783 3.35241C56.6127 5.5356 60.557 8.49849 63.9112 12.2411C67.2654 15.9837 69.9208 20.3847 71.8774 25.4442C73.834 30.5036 74.8123 35.9096 74.8123 41.6621C74.8123 47.4146 73.834 52.8206 71.8774 57.88C69.9208 62.9395 67.2654 67.3405 63.9112 71.0831C60.557 74.8257 56.6127 77.7886 52.0783 79.9718C47.5439 82.155 42.699 83.2466 37.5434 83.2466ZM37.5434 74.9297C45.8668 74.9297 52.9169 71.7069 58.6935 65.2613C64.4702 58.8157 67.3586 50.9493 67.3586 41.6621C67.3586 32.3749 64.4702 24.5085 58.6935 18.0629C52.9169 11.6173 45.8668 8.39453 37.5434 8.39453C29.2201 8.39453 22.17 11.6173 16.3933 18.0629C10.6167 24.5085 7.72832 32.3749 7.72832 41.6621C7.72832 50.9493 10.6167 58.8157 16.3933 65.2613C22.17 71.7069 29.2201 74.9297 37.5434 74.9297Z" fill="#FCA136"/>
</svg>
